<?xml version="1.0" encoding="UTF-8"?>
<svg id="Layer_1" data-name="Layer 1" xmlns="http://www.w3.org/2000/svg" viewBox="0 0 137.4 34.96">
  <defs>
    <style>
      .cls-1 {
        fill: #fbab7e;
      }
    </style>
  </defs>
  <path class="cls-1" d="m31.33,5.33h-5.93l-.98,7.66h-2.85v1.5h2.7l-1.2,9.61H6.47l-1.35-10.51h1.43v-1.5h-3.08l1.73,13.52h17.72l-.45,3.76h-1.73c-.3-1.28-1.5-2.25-2.93-2.25s-2.55.98-2.93,2.25h-1.73c-.3-1.28-1.5-2.25-2.93-2.25s-2.55.98-2.93,2.25h-2.33v1.5h2.33c.3,1.28,1.5,2.25,2.93,2.25s2.55-.98,2.93-2.25h1.73c.3,1.28,1.5,2.25,2.93,2.25s2.55-.98,2.93-2.25h3l3-24.03h4.58v-1.5ZM10.3,31.61c-.83,0-1.5-.68-1.5-1.5s.68-1.5,1.5-1.5,1.5.68,1.5,1.5-.68,1.5-1.5,1.5Zm7.51,0c-.83,0-1.5-.68-1.5-1.5s.68-1.5,1.5-1.5,1.5.68,1.5,1.5-.68,1.5-1.5,1.5Z"/>
  <rect class="cls-1" x="7.3" y="9.83" width="1.5" height="6.01"/>
  <rect class="cls-1" x="10.3" y="6.08" width="1.5" height="9.76"/>
  <g>
    <path class="cls-1" d="m40.72,15.4l-2.36.79c-.32-.94-.99-1.41-2.02-1.41-1.1,0-1.65.36-1.65,1.07,0,.28.1.52.31.72.21.2.67.37,1.39.51,1.21.24,2.09.49,2.66.74.56.25,1.03.65,1.42,1.2.39.55.58,1.17.58,1.86,0,1.07-.41,2-1.24,2.78-.82.78-2.05,1.17-3.67,1.17-1.22,0-2.25-.28-3.1-.83s-1.42-1.38-1.69-2.46l2.57-.58c.29,1.11,1.09,1.66,2.41,1.66.64,0,1.11-.12,1.42-.37.31-.25.47-.54.47-.88s-.14-.62-.43-.81c-.28-.19-.83-.37-1.64-.54-1.51-.31-2.59-.74-3.23-1.28-.64-.54-.96-1.33-.96-2.38s.38-1.94,1.15-2.67c.77-.72,1.81-1.09,3.12-1.09,2.33,0,3.82.93,4.49,2.79Z"/>
    <path class="cls-1" d="m45.25,12.79v4.28c.48-.92,1.27-1.38,2.37-1.38.59,0,1.1.13,1.52.39.42.26.72.59.89,1,.17.41.26,1,.26,1.78v5.8h-2.59v-4.95c0-.59-.02-1-.07-1.22-.05-.22-.15-.4-.32-.55-.16-.15-.37-.22-.62-.22-.32,0-.64.13-.96.38-.32.25-.48.79-.48,1.61v4.95h-2.51v-11.87h2.51Z"/>
    <path class="cls-1" d="m56.05,15.69c1.34,0,2.38.44,3.13,1.31.75.88,1.12,1.97,1.12,3.29s-.39,2.38-1.17,3.25c-.78.87-1.81,1.3-3.1,1.3s-2.25-.43-3-1.29c-.75-.86-1.12-1.96-1.12-3.3,0-.93.17-1.73.51-2.38.34-.65.8-1.18,1.39-1.58.59-.4,1.34-.6,2.24-.6Zm.07,1.69c-.49,0-.86.19-1.11.57-.25.38-.37,1.13-.37,2.26,0,1.04.12,1.78.36,2.23s.61.68,1.11.68c.44,0,.79-.19,1.07-.58.27-.38.41-1.12.41-2.2,0-1.15-.12-1.94-.36-2.35-.24-.41-.61-.62-1.1-.62Z"/>
    <path class="cls-1" d="m61.94,27.62v-11.74h2.38v1.29c.44-.98,1.21-1.47,2.31-1.47.95,0,1.73.38,2.33,1.14.61.76.91,1.87.91,3.32,0,1.55-.31,2.71-.92,3.5s-1.41,1.18-2.39,1.18-1.7-.39-2.12-1.16v3.94h-2.51Zm2.51-6.81c0,.62.04,1.05.11,1.29.08.24.23.45.48.64s.51.28.79.28c.35,0,.67-.18.95-.54.28-.36.42-1.16.42-2.4,0-1.73-.46-2.6-1.37-2.6-.35,0-.66.15-.95.46-.28.31-.43.83-.43,1.56v1.3Z"/>
    <path class="cls-1" d="m71.55,27.62v-11.74h2.38v1.29c.44-.98,1.21-1.47,2.31-1.47.95,0,1.73.38,2.33,1.14.61.76.91,1.87.91,3.32,0,1.55-.31,2.71-.92,3.5s-1.41,1.18-2.39,1.18-1.7-.39-2.12-1.16v3.94h-2.51Zm2.51-6.81c0,.62.04,1.05.11,1.29.08.24.23.45.48.64s.51.28.79.28c.35,0,.67-.18.95-.54.28-.36.42-1.16.42-2.4,0-1.73-.46-2.6-1.37-2.6-.35,0-.66.15-.95.46-.28.31-.43.83-.43,1.56v1.3Z"/>
    <path class="cls-1" d="m83.74,12.54v2.59h-2.59v-2.59h2.59Zm0,3.33v8.78h-2.59v-8.78h2.59Z"/>
    <path class="cls-1" d="m93.51,24.65h-2.59v-4.93c0-.6-.02-1.01-.07-1.23s-.16-.41-.34-.56c-.18-.15-.41-.23-.68-.23-.91,0-1.36.67-1.36,2.02v4.93h-2.59v-8.78h2.41v1.49c.4-.71.79-1.16,1.18-1.36.39-.2.81-.3,1.26-.3.83,0,1.51.22,2.02.67s.77,1.33.77,2.65v5.64Z"/>
    <path class="cls-1" d="m104.41,16.07c-.27-.06-.5-.09-.69-.09-.57,0-.91.26-1.01.77.47.49.7,1.05.7,1.67,0,.83-.35,1.49-1.04,1.98s-1.69.74-2.99.74c-.46,0-.92-.04-1.36-.13-.3.17-.44.4-.44.67,0,.3.12.5.37.6.25.1.85.17,1.8.22,1.35.07,2.28.15,2.79.25s.94.34,1.29.71c.35.38.52.85.52,1.41,0,.8-.37,1.49-1.12,2.04-.75.56-2.06.83-3.96.83-1.78,0-2.98-.19-3.6-.58-.62-.39-.93-.88-.93-1.47,0-.78.5-1.31,1.5-1.58-.74-.37-1.11-.89-1.11-1.57,0-.84.59-1.49,1.76-1.96-1.04-.43-1.56-1.14-1.56-2.15,0-.82.36-1.48,1.07-1.99.72-.51,1.71-.76,2.97-.76.8,0,1.57.13,2.32.38.05-.5.2-.91.44-1.23.24-.32.75-.48,1.53-.48.25,0,.5.02.73.07v1.64Zm-6.77,8.52c-.1,0-.24.07-.4.21-.16.14-.24.31-.24.5,0,.39.25.64.76.74.5.1,1.1.15,1.77.15.89,0,1.51-.07,1.86-.2.36-.13.53-.35.53-.64,0-.23-.15-.4-.45-.52-.3-.12-1.09-.18-2.39-.18h-.52c-.32,0-.53,0-.64-.02-.12-.02-.22-.03-.3-.03Zm1.73-7.5c-.44,0-.79.12-1.04.36-.25.24-.38.56-.38.95,0,.89.48,1.34,1.43,1.34.46,0,.82-.13,1.09-.39.26-.26.39-.58.39-.95,0-.35-.12-.65-.37-.92-.25-.26-.62-.4-1.12-.4Z"/>
    <path class="cls-1" d="m108.43,22.31h4.72v2.35h-7.54v-11.87h2.82v9.52Z"/>
    <path class="cls-1" d="m117.04,12.54v2.59h-2.59v-2.59h2.59Zm0,3.33v8.78h-2.59v-8.78h2.59Z"/>
    <path class="cls-1" d="m125.75,18l-1.89.5c-.22-.79-.79-1.19-1.71-1.19-.87,0-1.3.26-1.3.79,0,.21.08.38.24.5s.58.23,1.25.32c1,.13,1.74.29,2.23.46s.86.47,1.14.88c.28.41.42.92.42,1.52,0,.9-.34,1.64-1.03,2.21-.69.57-1.65.85-2.88.85-2.24,0-3.57-.87-4.01-2.6l2.18-.32c.18.79.83,1.18,1.95,1.18.43,0,.79-.08,1.09-.23.3-.15.44-.36.44-.62,0-.41-.33-.65-.98-.72-1.77-.22-2.94-.56-3.5-1.02-.56-.46-.84-1.1-.84-1.93s.32-1.52.97-2.07c.65-.54,1.56-.82,2.73-.82.93,0,1.67.18,2.23.55.56.36.98.95,1.28,1.76Z"/>
    <path class="cls-1" d="m130.66,17.89v3.71c0,.46.07.77.21.93.14.16.46.23.98.23.24,0,.51-.01.82-.03v1.92c-.75.13-1.29.19-1.63.19-1.08,0-1.84-.21-2.29-.62-.45-.41-.68-1.16-.68-2.25v-4.09h-1.39v-2.02h1.54l.21-2.59,2.23-.17v2.76h1.89v2.02h-1.89Z"/>
  </g>
  <rect class="cls-1" x="13.3" y="8.33" width="1.5" height="7.51"/>
  <rect class="cls-1" x="16.31" y="3.83" width="1.5" height="12.02"/>
  <rect class="cls-1" x="19.31" y="1.57" width="1.5" height="14.27"/>
</svg>